# Blender 4.1.1
# www.blender.org
mtllib Buiildings_1.mtl
o Cube.002
v -23.985001 -23.625000 119.372871
v -23.985001 23.625000 119.372871
v -23.985001 -23.625000 9.872871
v -23.985001 23.625000 9.872871
v 23.985001 -23.625000 119.372871
v 23.985001 23.625000 119.372871
v 23.985001 -23.625000 9.872871
v 23.985001 23.625000 9.872871
v -23.985001 -23.625000 92.478439
v -23.985001 23.625000 92.478439
v 23.985001 -23.625000 92.478439
v 23.985001 23.625000 92.478439
v 116.652786 23.625000 92.478439
v 116.652786 23.625000 119.372871
v 116.652786 -23.625000 119.372871
v 116.652786 -23.625000 92.478439
v -23.985001 -23.625000 177.835327
v -23.985001 23.625000 177.835327
v 23.985001 23.625000 177.835327
v 23.985001 -23.625000 177.835327
vn -1.0000 -0.0000 -0.0000
vn -0.0000 -0.0000 -1.0000
vn -0.0000 1.0000 -0.0000
vn -0.0000 -1.0000 -0.0000
vn 1.0000 -0.0000 -0.0000
vn -0.0000 -0.0000 1.0000
vt 0.600950 -1.057250
vt 0.600950 2.005084
vt 5.954724 2.005084
vt 5.954724 -1.057250
vt -1.049541 -1.057250
vt -1.049541 2.005084
vt 2.059457 2.005084
vt 2.059457 -1.057250
vt -2.753688 0.535572
vt -2.753688 -3.192664
vt 10.092375 -3.192664
vt 10.092375 0.535572
vt -1.142112 2.005084
vt -1.142112 -1.057250
vt -4.931138 -1.057250
vt -4.931138 2.005084
vt -4.213033 0.563075
vt -1.104036 0.563075
vt -1.104036 -1.179988
vt -4.213033 -1.179988
vt -9.403524 0.535572
vt -9.403524 -3.192664
vt -2.753688 11.986760
vt -9.403524 11.986760
vt -4.213033 5.916849
vt -1.104036 5.916849
vt 2.689350 -1.057250
vt 2.689350 2.005084
vt -2.664423 2.005084
vt -2.664423 -1.057250
vt 0.433582 -1.057250
vt 0.433582 2.005084
vt -1.309481 2.005084
vt -1.309481 -1.057250
vt -1.373024 2.005084
vt -1.373024 -1.057250
vt 4.632894 -1.057250
vt 4.632894 2.005084
vt -1.514169 -1.057250
vt -1.514169 2.005084
vt 4.491748 2.005084
vt 4.491748 -1.057250
vt 4.901882 0.563075
vt 4.901882 -1.179988
vt -4.482021 2.005084
vt -4.482021 -1.057250
vt -1.104036 -4.969014
vt -4.213033 -4.969014
vt -9.403524 -11.297016
vt -2.753688 -11.297016
vt -5.098506 2.005084
vt -5.098506 -1.057250
s 0
g Cube.002_Material.001
usemtl Material.001
f 9/1/1 10/2/1 4/3/1 3/4/1
f 3/5/2 4/6/2 8/7/2 7/8/2
f 2/13/1 1/14/1 17/15/1 18/16/1
f 9/17/4 11/18/4 5/19/4 1/20/4
f 3/25/4 7/26/4 11/18/4 9/17/4
f 7/27/5 8/28/5 12/29/5 11/30/5
f 1/14/1 2/13/1 10/2/1 9/1/1
f 16/31/5 13/32/5 14/33/5 15/34/5
f 6/35/6 5/36/6 15/37/6 14/38/6
f 11/39/2 12/40/2 13/41/2 16/42/2
f 5/19/4 11/18/4 16/43/4 15/44/4
f 20/36/6 19/35/6 18/45/6 17/46/6
f 1/20/4 5/19/4 20/47/4 17/48/4
f 5/34/5 6/33/5 19/51/5 20/52/5
g Cube.002_Material.002
usemtl Material.002
f 12/9/3 6/10/3 14/11/3 13/12/3
f 12/9/3 10/21/3 2/22/3 6/10/3
f 8/23/3 4/24/3 10/21/3 12/9/3
f 6/10/3 2/22/3 18/49/3 19/50/3
o Cube.003
v -23.985001 -23.625000 -10.096107
v -23.985001 23.625000 -10.096107
v -23.985001 -23.625000 -80.996109
v -23.985001 23.625000 -80.996109
v 23.985001 -23.625000 -10.096107
v 23.985001 23.625000 -10.096107
v 23.985001 -23.625000 -80.996109
v 23.985001 23.625000 -80.996109
vn -1.0000 -0.0000 -0.0000
vn -0.0000 -0.0000 -1.0000
vn 1.0000 -0.0000 -0.0000
vn -0.0000 -0.0000 1.0000
vn -0.0000 -1.0000 -0.0000
vn -0.0000 1.0000 -0.0000
vt -2.666186 -1.061122
vt -2.666186 2.035868
vt 1.980937 2.035868
vt 1.980937 -1.061122
vt -1.420470 -1.060725
vt -1.420470 2.036264
vt 1.723711 2.036264
vt 1.723711 -1.060725
vt 2.980270 -1.062230
vt 2.980270 2.034760
vt -1.666852 2.034760
vt -1.666852 -1.062230
vt 1.734508 -1.060725
vt 1.734508 2.036264
vt -1.409674 2.036264
vt -1.409674 -1.060725
vt -1.810311 2.763442
vt 1.333871 2.763442
vt 1.333871 -1.883681
vt -1.810311 -1.883681
vt 2.711583 4.832477
vt -3.188024 4.832477
vt -3.188024 -3.887182
vt 2.711583 -3.887182
s 0
g Cube.003_Material.001
usemtl Material.001
f 21/53/7 22/54/7 24/55/7 23/56/7
f 23/57/8 24/58/8 28/59/8 27/60/8
f 27/61/9 28/62/9 26/63/9 25/64/9
f 25/65/10 26/66/10 22/67/10 21/68/10
f 23/69/11 27/70/11 25/71/11 21/72/11
g Cube.003_Material.002
usemtl Material.002
f 28/73/12 24/74/12 22/75/12 26/76/12
o Cube.004
v -23.985001 -23.625000 -92.150482
v -23.985001 23.625000 -92.150482
v -23.985001 -23.625000 -258.050476
v -23.985001 23.625000 -258.050476
v 23.985001 -23.625000 -92.150482
v 23.985001 23.625000 -92.150482
v 23.985001 -23.625000 -258.050476
v 23.985001 23.625000 -258.050476
v -23.985001 -23.625000 -225.581390
v -23.985001 23.625000 -225.581390
v 23.985001 -23.625000 -225.581390
v 23.985001 23.625000 -225.581390
v -145.777512 23.625000 -225.581390
v -145.777512 23.625000 -258.050476
v -145.777512 -23.625000 -258.050476
v -145.777512 -23.625000 -225.581390
v -23.985001 23.625000 -306.301941
v -23.985001 -23.625000 -306.301941
v 23.985001 -23.625000 -306.301941
v 23.985001 23.625000 -306.301941
vn -0.0000 -1.0000 -0.0000
vn 1.0000 -0.0000 -0.0000
vn -0.0000 -0.0000 1.0000
vn -0.0000 1.0000 -0.0000
vn -1.0000 -0.0000 -0.0000
vn -0.0000 -0.0000 -1.0000
vt 3.266933 4.285937
vt 3.266933 2.169272
vt -4.672746 2.169272
vt -4.672746 4.285937
vt 3.524988 2.016495
vt 3.524988 -1.063742
vt 6.670509 -1.063742
vt 6.670509 2.016495
vt 1.408321 -1.063742
vt 1.408321 2.016495
vt -7.290066 2.016495
vt -7.290066 -1.063742
vt 1.748920 -1.064093
vt 1.748920 2.016144
vt -1.378254 2.016144
vt -1.378254 -1.064093
vt 6.394107 2.169272
vt 6.394107 -6.529116
vt 3.266933 -6.529116
vt 11.119228 3.636399
vt 5.321687 3.636399
vt 5.321687 -12.489746
vt 11.119228 -12.489746
vt 11.119228 7.560534
vt 5.321687 7.560534
vt 6.394107 4.285937
vt -6.050657 -1.063742
vt -6.050657 2.016495
vt 2.647730 2.016495
vt 2.647730 -1.063742
vt 2.746150 -1.088947
vt 2.746150 1.991291
vt 4.862816 1.991291
vt 4.862816 -1.088947
vt 3.364101 -1.088947
vt 3.364101 1.991291
vt -4.575578 1.991291
vt -4.575578 -1.088947
vt -9.397867 7.560534
vt -9.397867 3.636399
vt 3.266933 1.991291
vt 3.266933 -1.088947
vt -4.672746 -1.088947
vt -4.672746 1.991291
vt 6.394107 1.991291
vt 6.394107 -1.088947
vt 3.266933 7.431460
vt 6.394107 7.431460
vt 11.119228 13.392090
vt 5.321687 13.392090
vt 4.620852 -1.063742
vt 4.620852 2.016495
vt 7.766373 2.016495
vt 7.766373 -1.063742
s 0
g Cube.004_Material.001
usemtl Material.001
f 31/77/13 37/78/13 44/79/13 43/80/13
f 36/81/14 35/82/14 47/83/14 48/84/14
f 39/85/14 40/86/14 34/87/14 33/88/14
f 33/89/15 34/90/15 30/91/15 29/92/15
f 37/78/13 39/93/13 33/94/13 29/95/13
f 31/77/13 35/102/13 39/93/13 37/78/13
f 35/82/14 36/81/14 40/86/14 39/85/14
f 29/103/17 30/104/17 38/105/17 37/106/17
f 44/107/17 41/108/17 42/109/17 43/110/17
f 37/111/15 38/112/15 41/113/15 44/114/15
f 32/117/18 31/118/18 43/119/18 42/120/18
f 46/118/18 45/117/18 48/121/18 47/122/18
f 35/102/13 31/77/13 46/123/13 47/124/13
f 31/127/17 32/128/17 45/129/17 46/130/17
g Cube.004_Material.002
usemtl Material.002
f 40/96/16 38/97/16 30/98/16 34/99/16
f 36/100/16 32/101/16 38/97/16 40/96/16
f 38/97/16 32/101/16 42/115/16 41/116/16
f 32/101/16 36/100/16 48/125/16 45/126/16
