# Blender 4.1.1
# www.blender.org
o Cube
v 20.000000 23.000000 -20.000000
v 15.606313 11.279967 2.014208
v 20.000000 -23.000000 -20.000000
v 15.606313 20.184134 2.014208
v 20.000000 23.000000 20.000000
v 15.667081 11.229330 9.669356
v 20.000000 -23.000000 20.000000
v 15.667081 20.133497 9.669356
v -20.000000 23.000000 -20.000000
v 10.606942 11.279967 2.014208
v 10.606942 20.184134 2.014208
v -20.000000 -23.000000 -20.000000
v -20.000000 23.000000 20.000000
v 10.796295 11.229330 9.669356
v -20.000000 -23.000000 20.000000
v 10.796295 20.133497 9.669356
v -10.199298 9.587324 9.669357
v -10.199298 0.683157 9.669357
v -10.388650 0.617602 2.014208
v -10.388650 9.521768 2.014208
v -15.327252 9.587324 9.669359
v -15.327252 0.683157 9.669359
v -15.388021 0.617602 2.014208
v -15.388021 9.521768 2.014208
v 10.417587 20.234772 -5.640941
v 10.417587 11.330605 -5.640941
v 15.545545 20.234772 -5.640941
v 15.545545 11.330605 -5.640941
v -15.448789 0.552044 -5.640944
v -15.448789 9.456211 -5.640944
v -10.578004 0.552044 -5.640943
v -10.578004 9.456211 -5.640943
v 10.417587 -1.089961 -5.640941
v 10.417587 -9.994127 -5.640941
v 10.606942 -10.132767 2.014207
v 10.606942 -1.228600 2.014207
v 15.545545 -1.089961 -5.640941
v 15.545545 -9.994127 -5.640941
v 15.606313 -10.132767 2.014207
v 15.606313 -1.228600 2.014207
v 15.667081 -10.271404 9.669355
v 15.667081 -1.367236 9.669355
v 10.796295 -10.271404 9.669355
v 10.796295 -1.367236 9.669355
v -14.912919 -13.980784 9.669356
v -14.912919 -13.980784 2.041304
v -10.393524 23.000000 1.987346
v -10.394387 23.000000 -5.640943
v 4.912499 23.000000 -5.640941
v 4.977515 23.000000 2.007007
v -20.000000 -13.980784 9.669356
v -20.000000 -23.000000 9.669356
v -20.000000 -13.980784 2.041304
v -20.000000 -23.000000 2.041304
v -14.912919 -23.000000 9.669356
v -14.912919 -23.000000 2.041304
v -14.825058 -23.000000 9.643001
v -14.823445 -23.000000 9.669356
v -14.825058 -23.000000 2.041211
vn -0.0000 1.0000 -0.0000
vn -0.0000 -0.0000 1.0000
vn -1.0000 -0.0000 -0.0000
vn -0.0000 -1.0000 -0.0000
vn 1.0000 -0.0000 -0.0000
vn -0.0000 -0.0000 -1.0000
vn -1.0000 -0.0000 0.0079
vn 0.4508 -0.8926 -0.0103
vn -0.0000 1.0000 0.0066
vn -0.0000 -1.0000 -0.0066
vn -0.4508 0.8926 0.0103
vn 1.0000 -0.0000 -0.0079
vn -0.0000 1.0000 -0.0086
vn -0.0000 -1.0000 0.0086
vn -0.4481 -0.8940 0.0045
vn 0.0013 -0.0000 -1.0000
vn 0.4882 0.8727 -0.0032
vn -0.4523 -0.8918 0.0069
vn 0.4523 0.8918 -0.0069
vn -0.0000 0.9998 0.0181
vn -0.0000 -0.9998 -0.0181
vn 0.4437 -0.8961 -0.0136
vn 0.0011 -0.0000 1.0000
vn -0.4481 0.8939 0.0137
vt 0.814965 0.589744
vt 0.875000 0.500000
vt 0.875000 0.750000
vt 0.814960 0.637421
vt 0.625000 0.750000
vt 0.625000 0.500000
vt 0.719297 0.589744
vt 0.718891 0.637544
vt 0.375000 0.750000
vt 0.625000 1.000000
vt 0.375000 1.000000
vt 0.375000 0.000000
vt 0.625000 0.000000
vt 0.625000 0.250000
vt 0.375000 0.250000
vt 0.375000 0.112242
vt 0.424017 0.112242
vt 0.424017 0.064567
vt 0.375000 0.064567
vt 0.125000 0.500000
vt 0.375000 0.500000
vt 0.125000 0.750000
vt 0.125000 0.685433
vt 0.156794 0.685434
vt 0.157353 0.685434
vt 0.157343 0.685269
vt 0.157343 0.637758
vt 0.156794 0.637758
vt 0.125000 0.637758
vt 0.376226 0.500000
vt 0.376226 0.500000
vt 0.376226 0.750000
vt 0.375000 0.500863
vt 0.625000 0.750000
s 0
f 48/1/1 9/2/1 13/3/1 47/4/1
f 47/4/1 13/3/1 5/5/1 1/6/1 9/2/1 48/1/1 49/7/1 50/8/1
f 7/9/2 5/5/2 13/10/2 15/11/2
f 15/12/3 13/13/3 9/14/3 12/15/3 54/16/3 53/17/3 51/18/3 52/19/3
f 12/20/4 3/21/4 7/9/4 15/22/4 52/23/4 55/24/4 58/25/4 57/26/4 59/27/4 56/28/4 54/29/4
f 3/21/5 1/6/5 5/5/5 7/9/5
f 12/15/6 9/14/6 1/6/6 3/21/6
f 2/12/7 6/15/7 8/14/7 4/13/7
f 6/15/6 14/21/6 16/6/6 8/14/6
f 16/6/8 17/6/8 20/5/8 11/5/8
f 6/20/9 2/22/9 10/9/9 14/21/9
f 16/6/10 11/5/10 4/3/10 8/2/10
f 18/21/6 22/21/6 21/6/6 17/6/6
f 14/21/6 18/21/6 17/6/6 16/6/6
f 11/5/2 20/5/2 19/9/2 10/9/2
f 10/9/11 19/9/11 18/21/11 14/21/11
f 22/21/12 23/9/12 24/5/12 21/6/12
f 19/9/13 23/9/13 22/21/13 18/21/13
f 17/6/14 21/6/14 24/5/14 20/5/14
f 49/6/15 25/6/15 11/5/15 50/5/15
f 26/21/2 28/21/2 27/6/2 25/6/2
f 26/21/2 25/6/2 49/6/2 48/21/2
f 50/5/16 11/5/16 10/9/16 47/9/16
f 47/9/17 10/9/17 26/21/17 48/21/17
f 28/21/7 2/9/7 4/5/7 27/6/7
f 10/9/9 2/9/9 28/21/9 26/21/9
f 25/6/10 27/6/10 4/5/10 11/5/10
f 23/12/12 29/15/12 30/14/12 24/13/12
f 29/15/2 31/21/2 32/6/2 30/14/2
f 32/6/18 33/6/18 36/5/18 20/5/18
f 29/20/13 23/22/13 19/9/13 31/21/13
f 32/6/14 20/5/14 24/3/14 30/2/14
f 34/21/2 38/21/2 37/6/2 33/6/2
f 31/21/2 34/21/2 33/6/2 32/6/2
f 20/5/6 36/5/6 35/9/6 19/9/6
f 19/9/19 35/9/19 34/21/19 31/21/19
f 38/21/7 39/9/7 40/5/7 37/6/7
f 35/9/20 39/9/20 38/21/20 34/21/20
f 33/6/21 37/6/21 40/5/21 36/5/21
f 39/12/7 41/15/7 42/14/7 40/13/7
f 41/15/6 43/21/6 44/6/6 42/14/6
f 44/6/22 45/6/22 46/5/22 36/5/22
f 41/20/20 39/22/20 35/9/20 43/21/20
f 44/6/21 36/5/21 40/3/21 42/2/21
f 51/6/6 45/6/6 55/30/6 52/30/6
f 58/21/6 55/31/6 45/6/6 44/6/6 43/21/6
f 59/9/23 35/9/23 36/5/23 46/5/23 56/32/23
f 58/21/24 43/21/24 35/9/24 59/9/24 57/33/24
f 56/32/2 46/5/2 53/34/2 54/32/2
f 46/5/4 45/6/4 51/6/4 53/5/4
